<svg width="213" height="36" viewBox="0 0 213 36" fill="none" xmlns="http://www.w3.org/2000/svg">
<path d="M3.51562 16.4531V27H0V16.4531C0 9.42188 2.34375 5.90625 7.03125 5.90625C9.375 5.90625 11.1328 6.78516 12.3047 8.54297C13.4766 6.78516 15.2344 5.90625 17.5781 5.90625C22.2656 5.90625 24.6094 9.42188 24.6094 16.4531V27H21.0938V16.4531C21.0938 11.7656 19.9219 9.42188 17.5781 9.42188C15.2344 9.42188 14.0625 11.7656 14.0625 16.4531V27H10.5469V16.4531V16.1191C10.4883 11.6543 9.31641 9.42188 7.03125 9.42188C4.6875 9.42188 3.51562 11.7656 3.51562 16.4531ZM28.125 16.4531C28.125 9.42188 31.6406 5.90625 38.6719 5.90625C45.7031 5.90625 49.2188 9.42188 49.2188 16.4531C49.2188 23.4844 45.7031 27 38.6719 27C31.6406 27 28.125 23.4844 28.125 16.4531ZM31.6406 16.4531C31.6406 21.1406 33.9844 23.4844 38.6719 23.4844C43.3594 23.4844 45.7031 21.1406 45.7031 16.4531C45.7031 11.7656 43.3594 9.42188 38.6719 9.42188C33.9844 9.42188 31.6406 11.7656 31.6406 16.4531ZM52.7344 12.9375C52.7344 8.25 56.25 5.90625 63.2812 5.90625H70.3125V9.42188H63.2812C58.5938 9.42188 56.25 10.5938 56.25 12.9375V23.4844H63.2812C67.9688 23.4844 70.3125 22.3125 70.3125 19.9688C70.3125 17.625 67.9688 16.4531 63.2812 16.4531H59.7656V12.9375H63.2812C70.3125 12.9375 73.8281 15.2812 73.8281 19.9688C73.8281 24.6562 70.3125 27 63.2812 27H52.7344V12.9375ZM80.8594 5.90625V27H77.3438V5.90625H80.8594ZM84.375 16.4531V5.90625H87.8906V16.4531C87.8906 21.1406 90.2344 23.4844 94.9219 23.4844C99.6094 23.4844 101.953 21.1406 101.953 16.4531H105.469C105.469 23.4844 101.953 27 94.9219 27C87.8906 27 84.375 23.4844 84.375 16.4531ZM108.984 12.9375C108.984 8.25 112.5 5.90625 119.531 5.90625H130.078V9.42188H119.531C114.844 9.42188 112.5 10.5938 112.5 12.9375V14.2031C114.211 13.3594 116.555 12.9375 119.531 12.9375H126.562V16.4531H119.531C114.961 16.4531 112.617 17.5664 112.5 19.793V19.9688C112.5 22.3125 114.844 23.4844 119.531 23.4844H130.078V27H119.531C112.5 27 108.984 24.6562 108.984 19.9688V12.9375Z" fill="#283436"/>
<path d="M160.094 5.90625V27H156.578V9.42188H149.547C144.859 9.42188 142.516 11.7656 142.516 16.4531C142.516 21.1406 144.859 23.4844 149.547 23.4844H153.062V27H149.547C142.516 27 139 23.4844 139 16.4531C139 9.42188 142.516 5.90625 149.547 5.90625H160.094ZM174.156 9.42188H163.609V5.90625H174.156C181.188 5.90625 184.703 8.25 184.703 12.9375C184.703 17.625 181.188 19.9688 174.156 19.9688H167.125V27H163.609V16.4531H174.156C178.844 16.4531 181.188 15.2812 181.188 12.9375C181.188 10.5938 178.844 9.42188 174.156 9.42188ZM198.766 9.42188H188.219V5.90625H198.766C205.797 5.90625 209.312 8.25 209.312 12.9375C209.312 17.625 205.797 19.9688 198.766 19.9688H191.734V27H188.219V16.4531H198.766C203.453 16.4531 205.797 15.2812 205.797 12.9375C205.797 10.5938 203.453 9.42188 198.766 9.42188Z" fill="#0095FF"/>
</svg>
